# xmcd CD database file
#
# Track frame offsets:
#	150
#	26994
#	41124
#	55600
#	69795
#	84976
#	98574
#	119723
#	132939
#	147140
#	165030
#	177400
#	210001
#	219474
#	231910
#
# Disc length: 3282 seconds
#
# Revision: 0
# Processed by: cddbd v1.5.2PL0 Copyright (c) Steve Scherf et al.
# Submitted via: CDex 1.70beta2
#
DISCID=c30cd00f
DTITLE=Various Artist  -  Sleep Jazzz Bedside With Voice and Brass 
DYEAR=1900
DGENRE=Jazz
TTITLE0=It's Only A Paper Moon - Buddy Rich 
TTITLE1=Dream A Little Dream Of Me - Nat King Cole 
TTITLE2=Let's Dream In The Moonlight - Billie Holiday 
TTITLE3=I Guess I'll Have To Dream The Rest - Tommy Dorsey 
TTITLE4=As Long As I'm Dreaming - Peggy Lee 
TTITLE5=Someone's Rocking My Dreamboat - Erskine Hawkins
TTITLE6=All I Do Is Dream of You - Jaye P Morgan 
TTITLE7=Now I Lay Me Down To Dream /Andy Kirk 
TTITLE8=Through A Thousand Dreams - Dinah Shore 
TTITLE9=When My Dreamboat Comes Home - Henry Red Allen
TTITLE10=I Fell In Love With A Dream - Ella Fitzgerald 
TTITLE11=Goodnight, Sweet Dreams, Goodnight - Earl Hines 
TTITLE12=Dream Of You - Sy Oliver 
TTITLE13=My Funny Valentine - Chet Baker 
TTITLE14=A Kiss To Build A Dream On - Louis Armstrong  
EXTD=
EXTT0=
EXTT1=
EXTT2=
EXTT3=
EXTT4=
EXTT5=
EXTT6=
EXTT7=
EXTT8=
EXTT9=
EXTT10=
EXTT11=
EXTT12=
EXTT13=
EXTT14=
PLAYORDER=
